<svg width="738" height="165" viewBox="0 0 738 165" version="1.1" xmlns="http://www.w3.org/2000/svg" xmlns:xlink="http://www.w3.org/1999/xlink">
<g fill="none">
<path d="M 786.06 214.72C 783.18 214.72 780.876 213.904 779.148 212.272C 777.516 210.544 776.7 208.288 776.7 205.504L 776.7 127.744L 750.492 127.744C 744.732 127.744 741.852 125.2 741.852 120.112C 741.852 115.024 744.732 112.48 750.492 112.48L 821.484 112.48C 827.244 112.48 830.124 115.024 830.124 120.112C 830.124 125.2 827.244 127.744 821.484 127.744L 795.276 127.744L 795.276 205.504C 795.276 208.288 794.412 210.544 792.684 212.272C 791.052 213.904 788.844 214.72 786.06 214.72ZM 848.452 214.864C 845.86 214.864 843.7 214.144 841.972 212.704C 840.34 211.168 839.524 209.008 839.524 206.224L 839.524 150.64C 839.524 147.856 840.34 145.744 841.972 144.304C 843.7 142.864 845.86 142.144 848.452 142.144C 851.044 142.144 853.204 142.864 854.932 144.304C 856.66 145.744 857.524 147.856 857.524 150.64L 857.524 206.224C 857.524 209.008 856.66 211.168 854.932 212.704C 853.204 214.144 851.044 214.864 848.452 214.864ZM 848.452 129.328C 845.188 129.328 842.596 128.464 840.676 126.736C 838.756 124.912 837.796 122.56 837.796 119.68C 837.796 116.8 838.756 114.496 840.676 112.768C 842.596 111.04 845.188 110.176 848.452 110.176C 851.62 110.176 854.164 111.04 856.084 112.768C 858.1 114.496 859.108 116.8 859.108 119.68C 859.108 122.56 858.148 124.912 856.228 126.736C 854.308 128.464 851.716 129.328 848.452 129.328ZM 959.751 141.856C 967.431 141.856 973.287 144.16 977.319 148.768C 981.447 153.28 983.511 160.624 983.511 170.8L 983.511 206.224C 983.511 209.008 982.647 211.168 980.919 212.704C 979.287 214.144 977.127 214.864 974.439 214.864C 971.847 214.864 969.687 214.144 967.959 212.704C 966.327 211.168 965.511 209.008 965.511 206.224L 965.511 170.8C 965.511 165.52 964.551 161.776 962.631 159.568C 960.807 157.264 957.975 156.112 954.135 156.112C 949.431 156.112 945.687 157.744 942.903 161.008C 940.119 164.176 938.727 168.544 938.727 174.112L 938.727 206.224C 938.727 209.008 937.863 211.168 936.135 212.704C 934.503 214.144 932.391 214.864 929.799 214.864C 927.207 214.864 925.047 214.144 923.319 212.704C 921.591 211.168 920.727 209.008 920.727 206.224L 920.727 170.8C 920.727 165.52 919.767 161.776 917.847 159.568C 916.023 157.264 913.191 156.112 909.351 156.112C 904.647 156.112 900.903 157.744 898.119 161.008C 895.431 164.176 894.087 168.544 894.087 174.112L 894.087 206.224C 894.087 209.008 893.223 211.168 891.495 212.704C 889.767 214.144 887.607 214.864 885.015 214.864C 882.423 214.864 880.263 214.144 878.535 212.704C 876.903 211.168 876.087 209.008 876.087 206.224L 876.087 150.496C 876.087 147.808 876.951 145.744 878.679 144.304C 880.407 142.864 882.567 142.144 885.159 142.144C 887.655 142.144 889.671 142.864 891.207 144.304C 892.839 145.648 893.655 147.616 893.655 150.208L 893.655 153.664C 895.863 149.824 898.791 146.896 902.439 144.88C 906.183 142.864 910.455 141.856 915.255 141.856C 925.815 141.856 932.871 146.272 936.423 155.104C 938.535 151.072 941.655 147.856 945.783 145.456C 949.911 143.056 954.567 141.856 959.751 141.856ZM 1057.53 194.704C 1059.17 194.704 1060.46 195.328 1061.42 196.576C 1062.48 197.824 1063.01 199.504 1063.01 201.616C 1063.01 204.592 1061.23 207.088 1057.68 209.104C 1054.41 210.928 1050.72 212.416 1046.59 213.568C 1042.46 214.624 1038.53 215.152 1034.78 215.152C 1023.45 215.152 1014.48 211.888 1007.85 205.36C 1001.23 198.832 997.917 189.904 997.917 178.576C 997.917 171.376 999.357 164.992 1002.24 159.424C 1005.12 153.856 1009.15 149.536 1014.33 146.464C 1019.61 143.392 1025.57 141.856 1032.19 141.856C 1038.53 141.856 1044.05 143.248 1048.75 146.032C 1053.45 148.816 1057.1 152.752 1059.69 157.84C 1062.29 162.928 1063.58 168.928 1063.58 175.84C 1063.58 179.968 1061.76 182.032 1058.11 182.032L 1015.63 182.032C 1016.21 188.656 1018.08 193.552 1021.25 196.72C 1024.41 199.792 1029.02 201.328 1035.07 201.328C 1038.14 201.328 1040.83 200.944 1043.13 200.176C 1045.53 199.408 1048.22 198.352 1051.2 197.008C 1054.08 195.472 1056.19 194.704 1057.53 194.704ZM 1032.62 154.528C 1027.73 154.528 1023.79 156.064 1020.81 159.136C 1017.93 162.208 1016.21 166.624 1015.63 172.384L 1048.17 172.384C 1047.98 166.528 1046.54 162.112 1043.85 159.136C 1041.17 156.064 1037.42 154.528 1032.62 154.528ZM 1112.87 215.152C 1105.86 215.152 1099.04 214 1092.42 211.696C 1085.89 209.296 1080.75 206.128 1077.01 202.192C 1076.15 201.328 1075.71 200.176 1075.71 198.736C 1075.71 197.968 1075.91 197.344 1076.29 196.864C 1076.67 196.288 1077.15 196 1077.73 196C 1078.4 196 1079.27 196.384 1080.32 197.152C 1089.83 205.216 1100.67 209.248 1112.87 209.248C 1122.18 209.248 1129.33 207.376 1134.32 203.632C 1139.41 199.792 1141.95 194.368 1141.95 187.36C 1141.95 183.328 1140.71 180.064 1138.21 177.568C 1135.71 175.072 1132.64 173.2 1128.99 171.952C 1125.35 170.608 1120.45 169.216 1114.31 167.776C 1105.95 165.76 1099.57 163.984 1095.15 162.448C 1090.74 160.912 1086.75 158.32 1083.2 154.672C 1079.75 150.928 1078.02 145.84 1078.02 139.408C 1078.02 133.84 1079.46 128.944 1082.34 124.72C 1085.31 120.4 1089.44 117.088 1094.72 114.784C 1100.1 112.48 1106.24 111.328 1113.15 111.328C 1119.78 111.328 1126.02 112.48 1131.87 114.784C 1137.83 117.088 1142.63 120.256 1146.27 124.288C 1147.23 125.344 1147.71 126.496 1147.71 127.744C 1147.71 128.512 1147.47 129.184 1146.99 129.76C 1146.61 130.24 1146.13 130.48 1145.55 130.48C 1144.69 130.48 1143.87 130.096 1143.11 129.328C 1137.63 124.624 1132.74 121.456 1128.42 119.824C 1124.1 118.096 1119.01 117.232 1113.15 117.232C 1104.03 117.232 1096.93 119.2 1091.84 123.136C 1086.75 127.072 1084.21 132.592 1084.21 139.696C 1084.21 143.92 1085.31 147.376 1087.52 150.064C 1089.83 152.752 1092.71 154.864 1096.16 156.4C 1099.71 157.936 1104.13 159.376 1109.41 160.72L 1115.6 162.16C 1122.51 163.696 1128.13 165.28 1132.45 166.912C 1136.77 168.448 1140.42 170.896 1143.39 174.256C 1146.47 177.616 1148 182.128 1148 187.792C 1148 193.168 1146.51 197.92 1143.54 202.048C 1140.66 206.176 1136.53 209.392 1131.15 211.696C 1125.87 214 1119.78 215.152 1112.87 215.152ZM 1170.27 214.72C 1169.31 214.72 1168.54 214.432 1167.97 213.856C 1167.49 213.28 1167.25 212.464 1167.25 211.408L 1167.25 115.072C 1167.25 114.016 1167.49 113.2 1167.97 112.624C 1168.54 112.048 1169.31 111.76 1170.27 111.76C 1171.14 111.76 1171.86 112.096 1172.43 112.768C 1173.01 113.344 1173.3 114.112 1173.3 115.072L 1173.3 211.408C 1173.3 212.368 1173.01 213.184 1172.43 213.856C 1171.86 214.432 1171.14 214.72 1170.27 214.72ZM 1224.12 215.008C 1217.97 215.008 1212.55 213.52 1207.84 210.544C 1203.14 207.568 1199.49 203.344 1196.9 197.872C 1194.31 192.4 1193.01 186.016 1193.01 178.72C 1193.01 171.52 1194.31 165.184 1196.9 159.712C 1199.49 154.24 1203.14 150.016 1207.84 147.04C 1212.55 144.064 1217.97 142.576 1224.12 142.576C 1230.26 142.576 1235.68 144.064 1240.39 147.04C 1245.09 150.016 1248.74 154.24 1251.33 159.712C 1253.92 165.184 1255.22 171.52 1255.22 178.72C 1255.22 186.016 1253.92 192.4 1251.33 197.872C 1248.74 203.344 1245.09 207.568 1240.39 210.544C 1235.68 213.52 1230.26 215.008 1224.12 215.008ZM 1223.97 209.104C 1231.94 209.104 1238.04 206.512 1242.26 201.328C 1246.58 196.048 1248.74 188.512 1248.74 178.72C 1248.74 169.216 1246.53 161.824 1242.12 156.544C 1237.8 151.168 1231.8 148.48 1224.12 148.48C 1216.44 148.48 1210.39 151.168 1205.97 156.544C 1201.65 161.824 1199.49 169.216 1199.49 178.72C 1199.49 188.512 1201.6 196.048 1205.83 201.328C 1210.15 206.512 1216.2 209.104 1223.97 209.104ZM 1303.62 209.104C 1305.73 209.296 1306.79 210.256 1306.79 211.984C 1306.79 214.096 1305.4 215.008 1302.61 214.72L 1298.87 214.432C 1291.67 213.952 1286.39 211.792 1283.03 207.952C 1279.67 204.016 1277.99 197.968 1277.99 189.808L 1277.99 149.488L 1266.04 149.488C 1265.36 149.488 1264.79 149.248 1264.31 148.768C 1263.83 148.288 1263.59 147.712 1263.59 147.04C 1263.59 146.272 1263.83 145.648 1264.31 145.168C 1264.79 144.592 1265.36 144.304 1266.04 144.304L 1277.99 144.304L 1277.99 125.152C 1277.99 124.096 1278.28 123.28 1278.85 122.704C 1279.43 122.128 1280.15 121.84 1281.01 121.84C 1281.88 121.84 1282.6 122.128 1283.17 122.704C 1283.75 123.28 1284.04 124.096 1284.04 125.152L 1284.04 144.304L 1303.19 144.304C 1303.86 144.304 1304.44 144.592 1304.92 145.168C 1305.4 145.648 1305.64 146.272 1305.64 147.04C 1305.64 147.712 1305.4 148.288 1304.92 148.768C 1304.53 149.248 1303.96 149.488 1303.19 149.488L 1284.04 149.488L 1284.04 189.952C 1284.04 196.48 1285.28 201.136 1287.78 203.92C 1290.37 206.704 1294.36 208.336 1299.73 208.816L 1303.62 209.104Z" transform="translate(-569 -85)" fill="white"/>
<path d="M 165 82.5C 82.5 82.5 82.5 82.5 82.5 165C 36.9365 165 0 128.063 0 82.5C 0 36.9365 36.9365 0 82.5 0C 128.063 0 165 36.9365 165 82.5Z" fill="#FAAD3C"/>
<path d="M 115.909 57.9545C 115.909 89.962 89.962 115.909 57.9545 115.909C 25.9471 115.909 0 89.962 0 57.9545C 57.9545 57.9545 57.9545 57.9545 57.9545 0C 89.962 0 115.909 25.9471 115.909 57.9545Z" transform="translate(24.5455 24.5455)" fill="#334772"/>
<path d="M 67 33.5C 67 52.0015 52.0015 67 33.5 67C 14.9985 67 0 52.0015 0 33.5C 0 14.9985 14.9985 0 33.5 0C 33.5 33.5 33.5 33.5 67 33.5Z" transform="translate(50 50)" fill="#445A94"/>
</g>
</svg>

