<svg width="721" height="141" viewBox="0 0 721 141" version="1.1" xmlns="http://www.w3.org/2000/svg" xmlns:xlink="http://www.w3.org/1999/xlink">
<title>TimeSlot</title>
<desc>Created using Figma</desc>
<g id="Canvas" transform="translate(531 767)">
<g id="TimeSlot">
<g id="TimeSlot">
<use xlink:href="#path0_fill" transform="translate(-1117 -850)" fill="#FFFFFF"/>
</g>
<g id="Clock">
<g id="Ellipse">
<use xlink:href="#path1_fill" transform="translate(-521 -757)" fill="#FFFFFF"/>
<mask id="mask0_outline_out">
<rect id="mask0_outline_inv" fill="white" x="-10" y="-10" width="141" height="141" transform="translate(-521 -757)"/>
<use xlink:href="#path1_fill" fill="black" transform="translate(-521 -757)"/>
</mask>
<g mask="url(#mask0_outline_out)">
<use xlink:href="#path2_stroke_2x" transform="translate(-521 -757)" fill="#FFFFFF"/>
</g>
</g>
<g id="Hands">
<g id="Line">
<use xlink:href="#path3_stroke" transform="matrix(1.19249e-08 -1 1 1.19249e-08 -460 -704.923)" fill="#007AFF"/>
</g>
<g id="Line">
<use xlink:href="#path4_stroke" transform="matrix(-0.707107 -0.707107 0.707107 -0.707107 -433.89 -665.138)" fill="#007AFF"/>
</g>
<g id="Ellipse">
<use xlink:href="#path5_fill" transform="translate(-472.6 -708.6)" fill="#007AFF"/>
</g>
</g>
</g>
</g>
</g>
<defs>
<path id="path0_fill" d="M 786.06 214.72C 783.18 214.72 780.876 213.904 779.148 212.272C 777.516 210.544 776.7 208.288 776.7 205.504L 776.7 127.744L 750.492 127.744C 744.732 127.744 741.852 125.2 741.852 120.112C 741.852 115.024 744.732 112.48 750.492 112.48L 821.484 112.48C 827.244 112.48 830.124 115.024 830.124 120.112C 830.124 125.2 827.244 127.744 821.484 127.744L 795.276 127.744L 795.276 205.504C 795.276 208.288 794.412 210.544 792.684 212.272C 791.052 213.904 788.844 214.72 786.06 214.72ZM 848.452 214.864C 845.86 214.864 843.7 214.144 841.972 212.704C 840.34 211.168 839.524 209.008 839.524 206.224L 839.524 150.64C 839.524 147.856 840.34 145.744 841.972 144.304C 843.7 142.864 845.86 142.144 848.452 142.144C 851.044 142.144 853.204 142.864 854.932 144.304C 856.66 145.744 857.524 147.856 857.524 150.64L 857.524 206.224C 857.524 209.008 856.66 211.168 854.932 212.704C 853.204 214.144 851.044 214.864 848.452 214.864ZM 848.452 129.328C 845.188 129.328 842.596 128.464 840.676 126.736C 838.756 124.912 837.796 122.56 837.796 119.68C 837.796 116.8 838.756 114.496 840.676 112.768C 842.596 111.04 845.188 110.176 848.452 110.176C 851.62 110.176 854.164 111.04 856.084 112.768C 858.1 114.496 859.108 116.8 859.108 119.68C 859.108 122.56 858.148 124.912 856.228 126.736C 854.308 128.464 851.716 129.328 848.452 129.328ZM 959.751 141.856C 967.431 141.856 973.287 144.16 977.319 148.768C 981.447 153.28 983.511 160.624 983.511 170.8L 983.511 206.224C 983.511 209.008 982.647 211.168 980.919 212.704C 979.287 214.144 977.127 214.864 974.439 214.864C 971.847 214.864 969.687 214.144 967.959 212.704C 966.327 211.168 965.511 209.008 965.511 206.224L 965.511 170.8C 965.511 165.52 964.551 161.776 962.631 159.568C 960.807 157.264 957.975 156.112 954.135 156.112C 949.431 156.112 945.687 157.744 942.903 161.008C 940.119 164.176 938.727 168.544 938.727 174.112L 938.727 206.224C 938.727 209.008 937.863 211.168 936.135 212.704C 934.503 214.144 932.391 214.864 929.799 214.864C 927.207 214.864 925.047 214.144 923.319 212.704C 921.591 211.168 920.727 209.008 920.727 206.224L 920.727 170.8C 920.727 165.52 919.767 161.776 917.847 159.568C 916.023 157.264 913.191 156.112 909.351 156.112C 904.647 156.112 900.903 157.744 898.119 161.008C 895.431 164.176 894.087 168.544 894.087 174.112L 894.087 206.224C 894.087 209.008 893.223 211.168 891.495 212.704C 889.767 214.144 887.607 214.864 885.015 214.864C 882.423 214.864 880.263 214.144 878.535 212.704C 876.903 211.168 876.087 209.008 876.087 206.224L 876.087 150.496C 876.087 147.808 876.951 145.744 878.679 144.304C 880.407 142.864 882.567 142.144 885.159 142.144C 887.655 142.144 889.671 142.864 891.207 144.304C 892.839 145.648 893.655 147.616 893.655 150.208L 893.655 153.664C 895.863 149.824 898.791 146.896 902.439 144.88C 906.183 142.864 910.455 141.856 915.255 141.856C 925.815 141.856 932.871 146.272 936.423 155.104C 938.535 151.072 941.655 147.856 945.783 145.456C 949.911 143.056 954.567 141.856 959.751 141.856ZM 1057.53 194.704C 1059.17 194.704 1060.46 195.328 1061.42 196.576C 1062.48 197.824 1063.01 199.504 1063.01 201.616C 1063.01 204.592 1061.23 207.088 1057.68 209.104C 1054.41 210.928 1050.72 212.416 1046.59 213.568C 1042.46 214.624 1038.53 215.152 1034.78 215.152C 1023.45 215.152 1014.48 211.888 1007.85 205.36C 1001.23 198.832 997.917 189.904 997.917 178.576C 997.917 171.376 999.357 164.992 1002.24 159.424C 1005.12 153.856 1009.15 149.536 1014.33 146.464C 1019.61 143.392 1025.57 141.856 1032.19 141.856C 1038.53 141.856 1044.05 143.248 1048.75 146.032C 1053.45 148.816 1057.1 152.752 1059.69 157.84C 1062.29 162.928 1063.58 168.928 1063.58 175.84C 1063.58 179.968 1061.76 182.032 1058.11 182.032L 1015.63 182.032C 1016.21 188.656 1018.08 193.552 1021.25 196.72C 1024.41 199.792 1029.02 201.328 1035.07 201.328C 1038.14 201.328 1040.83 200.944 1043.13 200.176C 1045.53 199.408 1048.22 198.352 1051.2 197.008C 1054.08 195.472 1056.19 194.704 1057.53 194.704ZM 1032.62 154.528C 1027.73 154.528 1023.79 156.064 1020.81 159.136C 1017.93 162.208 1016.21 166.624 1015.63 172.384L 1048.17 172.384C 1047.98 166.528 1046.54 162.112 1043.85 159.136C 1041.17 156.064 1037.42 154.528 1032.62 154.528ZM 1112.87 215.152C 1105.86 215.152 1099.04 214 1092.42 211.696C 1085.89 209.296 1080.75 206.128 1077.01 202.192C 1076.15 201.328 1075.71 200.176 1075.71 198.736C 1075.71 197.968 1075.91 197.344 1076.29 196.864C 1076.67 196.288 1077.15 196 1077.73 196C 1078.4 196 1079.27 196.384 1080.32 197.152C 1089.83 205.216 1100.67 209.248 1112.87 209.248C 1122.18 209.248 1129.33 207.376 1134.32 203.632C 1139.41 199.792 1141.95 194.368 1141.95 187.36C 1141.95 183.328 1140.71 180.064 1138.21 177.568C 1135.71 175.072 1132.64 173.2 1128.99 171.952C 1125.35 170.608 1120.45 169.216 1114.31 167.776C 1105.95 165.76 1099.57 163.984 1095.15 162.448C 1090.74 160.912 1086.75 158.32 1083.2 154.672C 1079.75 150.928 1078.02 145.84 1078.02 139.408C 1078.02 133.84 1079.46 128.944 1082.34 124.72C 1085.31 120.4 1089.44 117.088 1094.72 114.784C 1100.1 112.48 1106.24 111.328 1113.15 111.328C 1119.78 111.328 1126.02 112.48 1131.87 114.784C 1137.83 117.088 1142.63 120.256 1146.27 124.288C 1147.23 125.344 1147.71 126.496 1147.71 127.744C 1147.71 128.512 1147.47 129.184 1146.99 129.76C 1146.61 130.24 1146.13 130.48 1145.55 130.48C 1144.69 130.48 1143.87 130.096 1143.11 129.328C 1137.63 124.624 1132.74 121.456 1128.42 119.824C 1124.1 118.096 1119.01 117.232 1113.15 117.232C 1104.03 117.232 1096.93 119.2 1091.84 123.136C 1086.75 127.072 1084.21 132.592 1084.21 139.696C 1084.21 143.92 1085.31 147.376 1087.52 150.064C 1089.83 152.752 1092.71 154.864 1096.16 156.4C 1099.71 157.936 1104.13 159.376 1109.41 160.72L 1115.6 162.16C 1122.51 163.696 1128.13 165.28 1132.45 166.912C 1136.77 168.448 1140.42 170.896 1143.39 174.256C 1146.47 177.616 1148 182.128 1148 187.792C 1148 193.168 1146.51 197.92 1143.54 202.048C 1140.66 206.176 1136.53 209.392 1131.15 211.696C 1125.87 214 1119.78 215.152 1112.87 215.152ZM 1170.27 214.72C 1169.31 214.72 1168.54 214.432 1167.97 213.856C 1167.49 213.28 1167.25 212.464 1167.25 211.408L 1167.25 115.072C 1167.25 114.016 1167.49 113.2 1167.97 112.624C 1168.54 112.048 1169.31 111.76 1170.27 111.76C 1171.14 111.76 1171.86 112.096 1172.43 112.768C 1173.01 113.344 1173.3 114.112 1173.3 115.072L 1173.3 211.408C 1173.3 212.368 1173.01 213.184 1172.43 213.856C 1171.86 214.432 1171.14 214.72 1170.27 214.72ZM 1224.12 215.008C 1217.97 215.008 1212.55 213.52 1207.84 210.544C 1203.14 207.568 1199.49 203.344 1196.9 197.872C 1194.31 192.4 1193.01 186.016 1193.01 178.72C 1193.01 171.52 1194.31 165.184 1196.9 159.712C 1199.49 154.24 1203.14 150.016 1207.84 147.04C 1212.55 144.064 1217.97 142.576 1224.12 142.576C 1230.26 142.576 1235.68 144.064 1240.39 147.04C 1245.09 150.016 1248.74 154.24 1251.33 159.712C 1253.92 165.184 1255.22 171.52 1255.22 178.72C 1255.22 186.016 1253.92 192.4 1251.33 197.872C 1248.74 203.344 1245.09 207.568 1240.39 210.544C 1235.68 213.52 1230.26 215.008 1224.12 215.008ZM 1223.97 209.104C 1231.94 209.104 1238.04 206.512 1242.26 201.328C 1246.58 196.048 1248.74 188.512 1248.74 178.72C 1248.74 169.216 1246.53 161.824 1242.12 156.544C 1237.8 151.168 1231.8 148.48 1224.12 148.48C 1216.44 148.48 1210.39 151.168 1205.97 156.544C 1201.65 161.824 1199.49 169.216 1199.49 178.72C 1199.49 188.512 1201.6 196.048 1205.83 201.328C 1210.15 206.512 1216.2 209.104 1223.97 209.104ZM 1303.62 209.104C 1305.73 209.296 1306.79 210.256 1306.79 211.984C 1306.79 214.096 1305.4 215.008 1302.61 214.72L 1298.87 214.432C 1291.67 213.952 1286.39 211.792 1283.03 207.952C 1279.67 204.016 1277.99 197.968 1277.99 189.808L 1277.99 149.488L 1266.04 149.488C 1265.36 149.488 1264.79 149.248 1264.31 148.768C 1263.83 148.288 1263.59 147.712 1263.59 147.04C 1263.59 146.272 1263.83 145.648 1264.31 145.168C 1264.79 144.592 1265.36 144.304 1266.04 144.304L 1277.99 144.304L 1277.99 125.152C 1277.99 124.096 1278.28 123.28 1278.85 122.704C 1279.43 122.128 1280.15 121.84 1281.01 121.84C 1281.88 121.84 1282.6 122.128 1283.17 122.704C 1283.75 123.28 1284.04 124.096 1284.04 125.152L 1284.04 144.304L 1303.19 144.304C 1303.86 144.304 1304.44 144.592 1304.92 145.168C 1305.4 145.648 1305.64 146.272 1305.64 147.04C 1305.64 147.712 1305.4 148.288 1304.92 148.768C 1304.53 149.248 1303.96 149.488 1303.19 149.488L 1284.04 149.488L 1284.04 189.952C 1284.04 196.48 1285.28 201.136 1287.78 203.92C 1290.37 206.704 1294.36 208.336 1299.73 208.816L 1303.62 209.104Z"/>
<path id="path1_fill" d="M 121 60.5C 121 93.9132 93.9132 121 60.5 121C 27.0868 121 0 93.9132 0 60.5C 0 27.0868 27.0868 0 60.5 0C 93.9132 0 121 27.0868 121 60.5Z"/>
<path id="path2_stroke_2x" d="M 111 60.5C 111 88.3904 88.3904 111 60.5 111L 60.5 131C 99.4361 131 131 99.4361 131 60.5L 111 60.5ZM 60.5 111C 32.6096 111 10 88.3904 10 60.5L -10 60.5C -10 99.4361 21.5639 131 60.5 131L 60.5 111ZM 10 60.5C 10 32.6096 32.6096 10 60.5 10L 60.5 -10C 21.5639 -10 -10 21.5639 -10 60.5L 10 60.5ZM 60.5 10C 88.3904 10 111 32.6096 111 60.5L 131 60.5C 131 21.5639 99.4361 -10 60.5 -10L 60.5 10Z"/>
<path id="path3_stroke" d="M 0.776914 5C 3.53834 5 5.77691 2.76142 5.77691 8.77924e-16C 5.77691 -2.76142 3.53834 -5 0.776914 -5L 0.776914 5ZM 37.0769 5C 39.8383 5 42.0769 2.76142 42.0769 1.42918e-16C 42.0769 -2.76142 39.8383 -5 37.0769 -5L 37.0769 5ZM 0.776914 -5C 0.308029 -5 0.119302 -5 0.021403 -5C 0.0124173 -5 0.00679817 -5 0.0032067 -5C 0.00151003 -5 0.000508399 -5 0.000143516 -5C -3.45342e-05 -5 4.99995 0 0.00010599 5C 0.00025879 5 0.000576666 5 0.00105892 5C 0.00456885 5 0.0196432 5 0.0438357 5C 0.0812842 5 0.19428 5 0.310166 5C 0.389571 5 0.651106 5 0.803224 5C 0.858691 5 1.05684 5 1.12941 5C 1.14513 5 1.20213 5 1.21889 5C 1.23406 5 1.24937 5 1.2648 5C 1.28023 5 1.29579 5 1.31148 5C 1.34209 5 1.47118 5 1.50584 5C 1.60354 5 2.24188 5 2.40084 5C 2.48319 5 3.33316 5 3.47106 5C 3.52728 5 4.59328 5 4.69932 5C 4.72051 5 5.33477 5 5.36735 5C 5.37956 5 6.04557 5 6.06845 5C 6.0715 5 6.78748 5 6.80048 5C 6.80067 5 6.98728 5 6.98807 5C 7.01948 5 7.05096 5 7.08252 5C 7.11408 5 7.14571 5 7.17742 5C 7.20912 5 7.2409 5 7.27275 5C 7.30459 5 7.33651 5 7.3685 5C 7.40049 5 7.43255 5 7.46468 5C 7.49681 5 7.52902 5 7.56129 5C 7.59356 5 7.6259 5 7.6583 5C 7.69071 5 7.72319 5 7.75573 5C 7.78828 5 7.82089 5 7.85357 5C 7.88625 5 7.919 5 7.95181 5C 7.98463 5 8.01751 5 8.05045 5C 8.0834 5 8.11641 5 8.14949 5C 8.18256 5 8.21571 5 8.24891 5C 8.28212 5 8.31539 5 8.34873 5C 8.38206 5 8.41546 5 8.44892 5C 8.48238 5 8.51591 5 8.5495 5C 8.58308 5 8.61673 5 8.65045 5C 8.68416 5 8.71793 5 8.75176 5C 8.7856 5 8.81949 5 8.85345 5C 8.8874 5 8.92142 5 8.95549 5C 8.98957 5 9.0237 5 9.0579 5C 9.09209 5 9.12634 5 9.16065 5C 9.19497 5 9.22933 5 9.26376 5C 9.29819 5 9.33267 5 9.36721 5C 9.40175 5 9.43635 5 9.471 5C 9.50566 5 9.54037 5 9.57513 5C 9.6099 5 9.64472 5 9.67959 5C 9.71447 5 9.7494 5 9.78438 5C 9.81936 5 9.8544 5 9.88949 5C 9.92458 5 9.95973 5 9.99492 5C 10.0301 5 10.0654 5 10.1007 5C 10.136 5 10.1713 5 10.2067 5C 10.2421 5 10.2776 5 10.3131 5C 10.3486 5 10.3842 5 10.4198 5C 10.4554 5 10.491 5 10.5267 5C 10.5624 5 10.5982 5 10.634 5C 10.6698 5 10.7056 5 10.7415 5C 10.7774 5 10.8134 5 10.8494 5C 10.8854 5 10.9214 5 10.9575 5C 10.9936 5 11.0297 5 11.0659 5C 11.1021 5 11.1383 5 11.1746 5C 11.2108 5 11.2472 5 11.2835 5C 11.3199 5 11.3563 5 11.3927 5C 11.4292 5 11.4657 5 11.5022 5C 11.5387 5 11.5753 5 11.6119 5C 11.6485 5 11.6852 5 11.7219 5C 11.7586 5 11.7953 5 11.8321 5C 11.8689 5 11.9057 5 11.9426 5C 11.9795 5 12.0164 5 12.0533 5C 12.0902 5 12.1272 5 12.1642 5C 12.2013 5 12.2383 5 12.2754 5C 12.3125 5 12.3497 5 12.3868 5C 12.424 5 12.4612 5 12.4985 5C 12.5357 5 12.573 5 12.6103 5C 12.6476 5 12.685 5 12.7224 5C 12.7598 5 12.7972 5 12.8346 5C 12.8721 5 12.9096 5 12.9471 5C 12.9846 5 13.0222 5 13.0598 5C 13.0974 5 13.135 5 13.1727 5C 13.2103 5 13.248 5 13.2858 5C 13.3235 5 13.3612 5 13.399 5C 13.4368 5 13.4746 5 13.5125 5C 13.5503 5 13.5882 5 13.6261 5C 13.664 5 13.7019 5 13.7399 5C 13.7779 5 13.8159 5 13.8539 5C 13.8919 5 13.93 5 13.968 5C 14.0061 5 14.0442 5 14.0824 5C 14.1205 5 14.1586 5 14.1968 5C 14.235 5 14.2732 5 14.3115 5C 14.3497 5 14.388 5 14.4262 5C 14.4645 5 14.5028 5 14.5412 5C 14.5795 5 14.6179 5 14.6563 5C 14.6946 5 14.733 5 14.7715 5C 14.8099 5 14.8483 5 14.8868 5C 14.9253 5 14.9638 5 15.0023 5C 15.0408 5 15.0794 5 15.1179 5C 15.1565 5 15.195 5 15.2336 5C 15.2722 5 15.3109 5 15.3495 5C 15.3881 5 15.4268 5 15.4654 5C 15.5041 5 15.5428 5 15.5815 5C 15.6202 5 15.659 5 15.6977 5C 15.7364 5 15.7752 5 15.814 5C 15.8528 5 15.8916 5 15.9304 5C 15.9692 5 16.008 5 16.0468 5C 16.0857 5 16.1245 5 16.1634 5C 16.2023 5 16.2411 5 16.28 5C 16.3189 5 16.3578 5 16.3968 5C 16.4357 5 16.4746 5 16.5136 5C 16.5525 5 16.5915 5 16.6304 5C 16.6694 5 16.7084 5 16.7474 5C 16.7864 5 16.8254 5 16.8644 5C 16.9034 5 16.9424 5 16.9815 5C 17.0205 5 17.0595 5 17.0986 5C 17.1376 5 17.1767 5 17.2158 5C 17.2548 5 17.2939 5 17.333 5C 17.3721 5 17.4112 5 17.4502 5C 17.4893 5 17.5284 5 17.5676 5C 17.6067 5 17.6458 5 17.6849 5C 17.724 5 17.7631 5 17.8023 5C 17.8414 5 17.8805 5 17.9197 5C 17.9588 5 17.9979 5 18.0371 5C 18.0762 5 18.1154 5 18.1545 5C 18.1561 5 19.0926 5 19.0941 5C 19.1151 5 20.0123 5 20.0325 5C 20.0767 5 20.9247 5 20.9674 5C 21.0393 5 21.8272 5 21.8968 5C 22.1432 5 23.497 5 23.7303 5C 24.7793 5 26.274 5 27.2361 5C 28.1229 5 28.0175 5 28.874 5C 29.4277 5 29.1118 5 29.6568 5C 30.2947 5 29.7839 5 30.4125 5C 30.7642 5 30.4303 5 30.7795 5C 31.1549 5 30.7662 5 31.139 5C 31.539 5 31.0933 5 31.4907 5C 31.9163 5 31.4113 5 31.8342 5C 32.2864 5 31.7201 5 32.1694 5C 32.6491 5 32.0192 5 32.496 5C 32.7461 5 32.4066 5 32.6559 5C 32.9133 5 32.557 5 32.8136 5C 33.0784 5 32.7051 5 32.969 5C 33.2413 5 32.8507 5 33.1221 5C 33.402 5 32.9938 5 33.2728 5C 33.5605 5 33.1343 5 33.4212 5C 33.7167 5 33.2723 5 33.5671 5C 33.8706 5 33.4078 5 33.7105 5C 34.0222 5 33.5406 5 33.8514 5C 34.1714 5 33.6707 5 33.9899 5C 34.3183 5 33.7982 5 34.1257 5C 34.4627 5 33.9229 5 34.259 5C 34.6047 5 34.0448 5 34.3896 5C 34.7441 5 34.164 5 34.5176 5C 34.8811 5 34.2803 5 34.6429 5C 35.0155 5 34.3937 5 34.7654 5C 35.1473 5 34.5043 5 34.8852 5C 35.2764 5 34.6119 5 35.0022 5C 35.403 5 34.7165 5 35.1163 5C 35.5268 5 34.8181 5 35.2276 5C 35.6479 5 34.9167 5 35.336 5C 35.3539 5 35.3716 5 35.3892 5C 35.4067 5 35.4242 5 35.4415 5C 35.4589 5 35.4761 5 35.4931 5C 35.5102 5 35.5272 5 35.544 5C 35.5609 5 35.5776 5 35.5942 5C 35.6107 5 35.6272 5 35.6435 5C 35.6599 5 35.6761 5 35.6922 5C 35.7082 5 35.7242 5 35.74 5C 35.7558 5 35.7715 5 35.7871 5C 35.8027 5 35.8181 5 35.8334 5C 35.8488 5 35.8639 5 35.879 5C 35.894 5 35.909 5 35.9238 5C 35.9386 5 35.9532 5 35.9677 5C 35.9823 5 35.9967 5 36.0109 5C 36.0252 5 36.0394 5 36.0534 5C 36.0674 5 36.0812 5 36.095 5C 36.1087 5 36.1223 5 36.1358 5C 36.1493 5 36.1626 5 36.1758 5C 36.189 5 36.2021 5 36.215 5C 36.2279 5 36.2407 5 36.2534 5C 36.266 5 36.2786 5 36.291 5C 36.3033 5 36.3156 5 36.3277 5C 36.3398 5 36.3518 5 36.3636 5C 36.3755 5 36.3872 5 36.3987 5C 36.4103 5 36.4217 5 36.433 5C 36.4443 5 36.4554 5 36.4664 5C 36.4774 5 36.4883 5 36.499 5C 36.5098 5 36.5203 5 36.5308 5C 36.5412 5 36.5515 5 36.5617 5C 36.5718 5 36.5818 5 36.5917 5C 36.6016 5 36.6113 5 36.6209 5C 36.6305 5 36.6399 5 36.6492 5C 36.6585 5 36.6676 5 36.6767 5C 36.6857 5 36.6945 5 36.7032 5C 36.7119 5 36.7205 5 36.7289 5C 36.7374 5 36.7456 5 36.7538 5C 36.7619 5 36.7699 5 36.7777 5C 36.7855 5 36.7932 5 36.8008 5C 36.8083 5 36.8157 5 36.8229 5C 36.8302 5 36.8373 5 36.8442 5C 36.8511 5 36.8579 5 36.8646 5C 36.8712 5 36.8777 5 36.884 5C 36.8904 5 36.8965 5 36.9026 5C 36.9086 5 36.9145 5 36.9202 5C 36.9259 5 36.9315 5 36.9369 5C 36.9424 5 36.9476 5 36.9528 5C 36.9579 5 36.9628 5 36.9676 5C 36.9724 5 36.9771 5 36.9816 5C 36.9861 5 36.9904 5 36.9946 5C 36.9988 5 37.0028 5 37.0067 5C 37.0105 5 37.0143 5 37.0178 5C 37.0214 5 37.0248 5 37.028 5C 37.0312 5 37.0343 5 37.0372 5C 37.0402 5 37.0429 5 37.0455 5C 37.0481 5 37.0506 5 37.0528 5C 37.0551 5 37.0572 5 37.0592 5C 37.0612 5 37.063 5 37.0646 5C 37.0662 5 37.0677 5 37.069 5C 37.0703 5 37.0715 5 37.0725 5C 37.0735 5 37.0743 5 37.0749 5C 37.0756 5 37.0761 5 37.0764 5C 37.0767 5 37.0769 5 37.0769 0C 37.0769 -5 37.0767 -5 37.0764 -5C 37.0761 -5 37.0756 -5 37.0749 -5C 37.0743 -5 37.0735 -5 37.0725 -5C 37.0715 -5 37.0703 -5 37.069 -5C 37.0677 -5 37.0662 -5 37.0646 -5C 37.063 -5 37.0612 -5 37.0592 -5C 37.0572 -5 37.0551 -5 37.0528 -5C 37.0506 -5 37.0481 -5 37.0455 -5C 37.0429 -5 37.0402 -5 37.0372 -5C 37.0343 -5 37.0312 -5 37.028 -5C 37.0248 -5 37.0214 -5 37.0178 -5C 37.0143 -5 37.0105 -5 37.0067 -5C 37.0028 -5 36.9988 -5 36.9946 -5C 36.9904 -5 36.9861 -5 36.9816 -5C 36.9771 -5 36.9724 -5 36.9676 -5C 36.9628 -5 36.9579 -5 36.9528 -5C 36.9476 -5 36.9424 -5 36.9369 -5C 36.9315 -5 36.9259 -5 36.9202 -5C 36.9145 -5 36.9086 -5 36.9026 -5C 36.8965 -5 36.8904 -5 36.884 -5C 36.8777 -5 36.8712 -5 36.8646 -5C 36.8579 -5 36.8511 -5 36.8442 -5C 36.8373 -5 36.8302 -5 36.8229 -5C 36.8157 -5 36.8083 -5 36.8008 -5C 36.7932 -5 36.7855 -5 36.7777 -5C 36.7699 -5 36.7619 -5 36.7538 -5C 36.7456 -5 36.7374 -5 36.7289 -5C 36.7205 -5 36.7119 -5 36.7032 -5C 36.6945 -5 36.6857 -5 36.6767 -5C 36.6676 -5 36.6585 -5 36.6492 -5C 36.6399 -5 36.6305 -5 36.6209 -5C 36.6113 -5 36.6016 -5 36.5917 -5C 36.5818 -5 36.5718 -5 36.5617 -5C 36.5515 -5 36.5412 -5 36.5308 -5C 36.5203 -5 36.5098 -5 36.499 -5C 36.4883 -5 36.4774 -5 36.4664 -5C 36.4554 -5 36.4443 -5 36.433 -5C 36.4217 -5 36.4103 -5 36.3987 -5C 36.3872 -5 36.3755 -5 36.3636 -5C 36.3518 -5 36.3398 -5 36.3277 -5C 36.3156 -5 36.3033 -5 36.291 -5C 36.2786 -5 36.266 -5 36.2534 -5C 36.2407 -5 36.2279 -5 36.215 -5C 36.2021 -5 36.189 -5 36.1758 -5C 36.1626 -5 36.1493 -5 36.1358 -5C 36.1223 -5 36.1087 -5 36.095 -5C 36.0812 -5 36.0674 -5 36.0534 -5C 36.0394 -5 36.0252 -5 36.0109 -5C 35.9967 -5 35.9823 -5 35.9677 -5C 35.9532 -5 35.9386 -5 35.9238 -5C 35.909 -5 35.894 -5 35.879 -5C 35.8639 -5 35.8488 -5 35.8334 -5C 35.8181 -5 35.8027 -5 35.7871 -5C 35.7715 -5 35.7558 -5 35.74 -5C 35.7242 -5 35.7082 -5 35.6922 -5C 35.6761 -5 35.6599 -5 35.6435 -5C 35.6272 -5 35.6107 -5 35.5942 -5C 35.5776 -5 35.5609 -5 35.544 -5C 35.5272 -5 35.5102 -5 35.4931 -5C 35.4761 -5 35.4589 -5 35.4415 -5C 35.4242 -5 35.4067 -5 35.3892 -5C 35.3716 -5 35.3539 -5 35.336 -5C 34.9167 -5 35.6479 -5 35.2276 -5C 34.8181 -5 35.5268 -5 35.1163 -5C 34.7165 -5 35.403 -5 35.0022 -5C 34.6119 -5 35.2764 -5 34.8852 -5C 34.5043 -5 35.1473 -5 34.7654 -5C 34.3937 -5 35.0155 -5 34.6429 -5C 34.2803 -5 34.8811 -5 34.5176 -5C 34.164 -5 34.7441 -5 34.3896 -5C 34.0448 -5 34.6047 -5 34.259 -5C 33.9229 -5 34.4627 -5 34.1257 -5C 33.7982 -5 34.3183 -5 33.9899 -5C 33.6707 -5 34.1714 -5 33.8514 -5C 33.5406 -5 34.0222 -5 33.7105 -5C 33.4078 -5 33.8706 -5 33.5671 -5C 33.2723 -5 33.7167 -5 33.4212 -5C 33.1343 -5 33.5605 -5 33.2728 -5C 32.9938 -5 33.402 -5 33.1221 -5C 32.8507 -5 33.2413 -5 32.969 -5C 32.7051 -5 33.0784 -5 32.8136 -5C 32.557 -5 32.9133 -5 32.6559 -5C 32.4066 -5 32.7461 -5 32.496 -5C 32.0192 -5 32.6491 -5 32.1694 -5C 31.7201 -5 32.2864 -5 31.8342 -5C 31.4113 -5 31.9163 -5 31.4907 -5C 31.0933 -5 31.539 -5 31.139 -5C 30.7662 -5 31.1549 -5 30.7795 -5C 30.4303 -5 30.7642 -5 30.4125 -5C 29.7839 -5 30.2947 -5 29.6568 -5C 29.1118 -5 29.4277 -5 28.874 -5C 28.0175 -5 28.1229 -5 27.2361 -5C 26.274 -5 24.7793 -5 23.7303 -5C 23.497 -5 22.1432 -5 21.8968 -5C 21.8272 -5 21.0393 -5 20.9674 -5C 20.9247 -5 20.0767 -5 20.0325 -5C 20.0123 -5 19.1151 -5 19.0941 -5C 19.0926 -5 18.1561 -5 18.1545 -5C 18.1154 -5 18.0762 -5 18.0371 -5C 17.9979 -5 17.9588 -5 17.9197 -5C 17.8805 -5 17.8414 -5 17.8023 -5C 17.7631 -5 17.724 -5 17.6849 -5C 17.6458 -5 17.6067 -5 17.5676 -5C 17.5284 -5 17.4893 -5 17.4502 -5C 17.4112 -5 17.3721 -5 17.333 -5C 17.2939 -5 17.2548 -5 17.2158 -5C 17.1767 -5 17.1376 -5 17.0986 -5C 17.0595 -5 17.0205 -5 16.9815 -5C 16.9424 -5 16.9034 -5 16.8644 -5C 16.8254 -5 16.7864 -5 16.7474 -5C 16.7084 -5 16.6694 -5 16.6304 -5C 16.5915 -5 16.5525 -5 16.5136 -5C 16.4746 -5 16.4357 -5 16.3968 -5C 16.3578 -5 16.3189 -5 16.28 -5C 16.2411 -5 16.2023 -5 16.1634 -5C 16.1245 -5 16.0857 -5 16.0468 -5C 16.008 -5 15.9692 -5 15.9304 -5C 15.8916 -5 15.8528 -5 15.814 -5C 15.7752 -5 15.7364 -5 15.6977 -5C 15.659 -5 15.6202 -5 15.5815 -5C 15.5428 -5 15.5041 -5 15.4654 -5C 15.4268 -5 15.3881 -5 15.3495 -5C 15.3109 -5 15.2722 -5 15.2336 -5C 15.195 -5 15.1565 -5 15.1179 -5C 15.0794 -5 15.0408 -5 15.0023 -5C 14.9638 -5 14.9253 -5 14.8868 -5C 14.8483 -5 14.8099 -5 14.7715 -5C 14.733 -5 14.6946 -5 14.6563 -5C 14.6179 -5 14.5795 -5 14.5412 -5C 14.5028 -5 14.4645 -5 14.4262 -5C 14.388 -5 14.3497 -5 14.3115 -5C 14.2732 -5 14.235 -5 14.1968 -5C 14.1586 -5 14.1205 -5 14.0824 -5C 14.0442 -5 14.0061 -5 13.968 -5C 13.93 -5 13.8919 -5 13.8539 -5C 13.8159 -5 13.7779 -5 13.7399 -5C 13.7019 -5 13.664 -5 13.6261 -5C 13.5882 -5 13.5503 -5 13.5125 -5C 13.4746 -5 13.4368 -5 13.399 -5C 13.3612 -5 13.3235 -5 13.2858 -5C 13.248 -5 13.2103 -5 13.1727 -5C 13.135 -5 13.0974 -5 13.0598 -5C 13.0222 -5 12.9846 -5 12.9471 -5C 12.9096 -5 12.8721 -5 12.8346 -5C 12.7972 -5 12.7598 -5 12.7224 -5C 12.685 -5 12.6476 -5 12.6103 -5C 12.573 -5 12.5357 -5 12.4985 -5C 12.4612 -5 12.424 -5 12.3868 -5C 12.3497 -5 12.3125 -5 12.2754 -5C 12.2383 -5 12.2013 -5 12.1642 -5C 12.1272 -5 12.0902 -5 12.0533 -5C 12.0164 -5 11.9795 -5 11.9426 -5C 11.9057 -5 11.8689 -5 11.8321 -5C 11.7953 -5 11.7586 -5 11.7219 -5C 11.6852 -5 11.6485 -5 11.6119 -5C 11.5753 -5 11.5387 -5 11.5022 -5C 11.4657 -5 11.4292 -5 11.3927 -5C 11.3563 -5 11.3199 -5 11.2835 -5C 11.2472 -5 11.2108 -5 11.1746 -5C 11.1383 -5 11.1021 -5 11.0659 -5C 11.0297 -5 10.9936 -5 10.9575 -5C 10.9214 -5 10.8854 -5 10.8494 -5C 10.8134 -5 10.7774 -5 10.7415 -5C 10.7056 -5 10.6698 -5 10.634 -5C 10.5982 -5 10.5624 -5 10.5267 -5C 10.491 -5 10.4554 -5 10.4198 -5C 10.3842 -5 10.3486 -5 10.3131 -5C 10.2776 -5 10.2421 -5 10.2067 -5C 10.1713 -5 10.136 -5 10.1007 -5C 10.0654 -5 10.0301 -5 9.99492 -5C 9.95973 -5 9.92458 -5 9.88949 -5C 9.8544 -5 9.81936 -5 9.78438 -5C 9.7494 -5 9.71447 -5 9.67959 -5C 9.64472 -5 9.6099 -5 9.57513 -5C 9.54037 -5 9.50566 -5 9.471 -5C 9.43635 -5 9.40175 -5 9.36721 -5C 9.33267 -5 9.29819 -5 9.26376 -5C 9.22933 -5 9.19497 -5 9.16065 -5C 9.12634 -5 9.09209 -5 9.0579 -5C 9.0237 -5 8.98957 -5 8.95549 -5C 8.92142 -5 8.8874 -5 8.85345 -5C 8.81949 -5 8.7856 -5 8.75176 -5C 8.71793 -5 8.68416 -5 8.65045 -5C 8.61673 -5 8.58308 -5 8.5495 -5C 8.51591 -5 8.48238 -5 8.44892 -5C 8.41546 -5 8.38206 -5 8.34873 -5C 8.31539 -5 8.28212 -5 8.24891 -5C 8.21571 -5 8.18256 -5 8.14949 -5C 8.11641 -5 8.0834 -5 8.05045 -5C 8.01751 -5 7.98463 -5 7.95181 -5C 7.919 -5 7.88625 -5 7.85357 -5C 7.82089 -5 7.78828 -5 7.75573 -5C 7.72319 -5 7.69071 -5 7.6583 -5C 7.6259 -5 7.59356 -5 7.56129 -5C 7.52902 -5 7.49681 -5 7.46468 -5C 7.43255 -5 7.40049 -5 7.3685 -5C 7.33651 -5 7.30459 -5 7.27275 -5C 7.2409 -5 7.20912 -5 7.17742 -5C 7.14571 -5 7.11408 -5 7.08252 -5C 7.05096 -5 7.01948 -5 6.98807 -5C 6.98728 -5 6.80067 -5 6.80048 -5C 6.78748 -5 6.0715 -5 6.06845 -5C 6.04557 -5 5.37956 -5 5.36735 -5C 5.33477 -5 4.72051 -5 4.69932 -5C 4.59328 -5 3.52728 -5 3.47106 -5C 3.33316 -5 2.48319 -5 2.40084 -5C 2.24188 -5 1.60354 -5 1.50584 -5C 1.47118 -5 1.34209 -5 1.31148 -5C 1.29579 -5 1.28023 -5 1.2648 -5C 1.24937 -5 1.23406 -5 1.21889 -5C 1.20213 -5 1.14513 -5 1.12941 -5C 1.05684 -5 0.858691 -5 0.803224 -5C 0.651106 -5 0.389571 -5 0.310166 -5C 0.19428 -5 0.0812842 -5 0.0438357 -5C 0.0196432 -5 0.00456885 -5 0.00105892 -5C 0.000576666 -5 0.00025879 -5 0.00010599 -5C -5.00005 0 -3.45342e-05 5 0.000143516 5C 0.000508399 5 0.00151003 5 0.0032067 5C 0.00679817 5 0.0124173 5 0.021403 5C 0.119302 5 0.308029 5 0.776914 5L 0.776914 -5Z"/>
<path id="path4_stroke" d="M 0.16247 -4.99736C -2.5975 -5.08709 -4.90763 -2.92244 -4.99736 -0.16247C -5.08709 2.5975 -2.92244 4.90763 -0.16247 4.99736L 0.16247 -4.99736ZM 32.5202 6.05991C 35.2802 6.14964 37.5903 3.98499 37.6801 1.22503C 37.7698 -1.53494 35.6051 -3.84507 32.8452 -3.9348L 32.5202 6.05991ZM -0.16247 4.99736L 32.5202 6.05991L 32.8452 -3.9348L 0.16247 -4.99736L -0.16247 4.99736Z"/>
<path id="path5_fill" d="M 24.2 12.1C 24.2 18.7826 18.7826 24.2 12.1 24.2C 5.41735 24.2 0 18.7826 0 12.1C 0 5.41735 5.41735 0 12.1 0C 18.7826 0 24.2 5.41735 24.2 12.1Z"/>
</defs>
</svg>
