<svg width="839" height="334" viewBox="0 0 839 334" fill="none" xmlns="http://www.w3.org/2000/svg">
<path d="M233.06 214.72C230.18 214.72 227.876 213.904 226.148 212.272C224.516 210.544 223.7 208.288 223.7 205.504V127.744H197.492C191.732 127.744 188.852 125.2 188.852 120.112C188.852 115.024 191.732 112.48 197.492 112.48H268.484C274.244 112.48 277.124 115.024 277.124 120.112C277.124 125.2 274.244 127.744 268.484 127.744H242.276V205.504C242.276 208.288 241.412 210.544 239.684 212.272C238.052 213.904 235.844 214.72 233.06 214.72ZM295.452 214.864C292.86 214.864 290.7 214.144 288.972 212.704C287.34 211.168 286.524 209.008 286.524 206.224V150.64C286.524 147.856 287.34 145.744 288.972 144.304C290.7 142.864 292.86 142.144 295.452 142.144C298.044 142.144 300.204 142.864 301.932 144.304C303.66 145.744 304.524 147.856 304.524 150.64V206.224C304.524 209.008 303.66 211.168 301.932 212.704C300.204 214.144 298.044 214.864 295.452 214.864ZM295.452 129.328C292.188 129.328 289.596 128.464 287.676 126.736C285.756 124.912 284.796 122.56 284.796 119.68C284.796 116.8 285.756 114.496 287.676 112.768C289.596 111.04 292.188 110.176 295.452 110.176C298.62 110.176 301.164 111.04 303.084 112.768C305.1 114.496 306.108 116.8 306.108 119.68C306.108 122.56 305.148 124.912 303.228 126.736C301.308 128.464 298.716 129.328 295.452 129.328ZM406.751 141.856C414.431 141.856 420.287 144.16 424.319 148.768C428.447 153.28 430.511 160.624 430.511 170.8V206.224C430.511 209.008 429.647 211.168 427.919 212.704C426.287 214.144 424.127 214.864 421.439 214.864C418.847 214.864 416.687 214.144 414.959 212.704C413.327 211.168 412.511 209.008 412.511 206.224V170.8C412.511 165.52 411.551 161.776 409.631 159.568C407.807 157.264 404.975 156.112 401.135 156.112C396.431 156.112 392.687 157.744 389.903 161.008C387.119 164.176 385.727 168.544 385.727 174.112V206.224C385.727 209.008 384.863 211.168 383.135 212.704C381.503 214.144 379.391 214.864 376.799 214.864C374.207 214.864 372.047 214.144 370.319 212.704C368.591 211.168 367.727 209.008 367.727 206.224V170.8C367.727 165.52 366.767 161.776 364.847 159.568C363.023 157.264 360.191 156.112 356.351 156.112C351.647 156.112 347.903 157.744 345.119 161.008C342.431 164.176 341.087 168.544 341.087 174.112V206.224C341.087 209.008 340.223 211.168 338.495 212.704C336.767 214.144 334.607 214.864 332.015 214.864C329.423 214.864 327.263 214.144 325.535 212.704C323.903 211.168 323.087 209.008 323.087 206.224V150.496C323.087 147.808 323.951 145.744 325.679 144.304C327.407 142.864 329.567 142.144 332.159 142.144C334.655 142.144 336.671 142.864 338.207 144.304C339.839 145.648 340.655 147.616 340.655 150.208V153.664C342.863 149.824 345.791 146.896 349.439 144.88C353.183 142.864 357.455 141.856 362.255 141.856C372.815 141.856 379.871 146.272 383.423 155.104C385.535 151.072 388.655 147.856 392.783 145.456C396.911 143.056 401.567 141.856 406.751 141.856ZM504.533 194.704C506.165 194.704 507.461 195.328 508.421 196.576C509.477 197.824 510.005 199.504 510.005 201.616C510.005 204.592 508.229 207.088 504.677 209.104C501.413 210.928 497.717 212.416 493.589 213.568C489.461 214.624 485.525 215.152 481.781 215.152C470.453 215.152 461.477 211.888 454.853 205.36C448.229 198.832 444.917 189.904 444.917 178.576C444.917 171.376 446.357 164.992 449.237 159.424C452.117 153.856 456.149 149.536 461.333 146.464C466.613 143.392 472.565 141.856 479.189 141.856C485.525 141.856 491.045 143.248 495.749 146.032C500.453 148.816 504.101 152.752 506.693 157.84C509.285 162.928 510.581 168.928 510.581 175.84C510.581 179.968 508.757 182.032 505.109 182.032H462.629C463.205 188.656 465.077 193.552 468.245 196.72C471.413 199.792 476.021 201.328 482.069 201.328C485.141 201.328 487.829 200.944 490.133 200.176C492.533 199.408 495.221 198.352 498.197 197.008C501.077 195.472 503.189 194.704 504.533 194.704ZM479.621 154.528C474.725 154.528 470.789 156.064 467.813 159.136C464.933 162.208 463.205 166.624 462.629 172.384H495.173C494.981 166.528 493.541 162.112 490.853 159.136C488.165 156.064 484.421 154.528 479.621 154.528ZM559.865 215.152C552.857 215.152 546.041 214 539.417 211.696C532.889 209.296 527.753 206.128 524.009 202.192C523.145 201.328 522.713 200.176 522.713 198.736C522.713 197.968 522.905 197.344 523.289 196.864C523.673 196.288 524.153 196 524.729 196C525.401 196 526.265 196.384 527.321 197.152C536.825 205.216 547.673 209.248 559.865 209.248C569.177 209.248 576.329 207.376 581.321 203.632C586.409 199.792 588.953 194.368 588.953 187.36C588.953 183.328 587.705 180.064 585.209 177.568C582.713 175.072 579.641 173.2 575.993 171.952C572.345 170.608 567.449 169.216 561.305 167.776C552.953 165.76 546.569 163.984 542.153 162.448C537.737 160.912 533.753 158.32 530.201 154.672C526.745 150.928 525.017 145.84 525.017 139.408C525.017 133.84 526.457 128.944 529.337 124.72C532.313 120.4 536.441 117.088 541.721 114.784C547.097 112.48 553.241 111.328 560.153 111.328C566.777 111.328 573.017 112.48 578.873 114.784C584.825 117.088 589.625 120.256 593.273 124.288C594.233 125.344 594.713 126.496 594.713 127.744C594.713 128.512 594.473 129.184 593.993 129.76C593.609 130.24 593.129 130.48 592.553 130.48C591.689 130.48 590.873 130.096 590.105 129.328C584.633 124.624 579.737 121.456 575.417 119.824C571.097 118.096 566.009 117.232 560.153 117.232C551.033 117.232 543.929 119.2 538.841 123.136C533.753 127.072 531.209 132.592 531.209 139.696C531.209 143.92 532.313 147.376 534.521 150.064C536.825 152.752 539.705 154.864 543.161 156.4C546.713 157.936 551.129 159.376 556.409 160.72L562.601 162.16C569.513 163.696 575.129 165.28 579.449 166.912C583.769 168.448 587.417 170.896 590.393 174.256C593.465 177.616 595.001 182.128 595.001 187.792C595.001 193.168 593.513 197.92 590.537 202.048C587.657 206.176 583.529 209.392 578.153 211.696C572.873 214 566.777 215.152 559.865 215.152ZM617.272 214.72C616.312 214.72 615.544 214.432 614.968 213.856C614.488 213.28 614.248 212.464 614.248 211.408V115.072C614.248 114.016 614.488 113.2 614.968 112.624C615.544 112.048 616.312 111.76 617.272 111.76C618.136 111.76 618.856 112.096 619.432 112.768C620.008 113.344 620.296 114.112 620.296 115.072V211.408C620.296 212.368 620.008 213.184 619.432 213.856C618.856 214.432 618.136 214.72 617.272 214.72ZM671.115 215.008C664.971 215.008 659.547 213.52 654.843 210.544C650.139 207.568 646.491 203.344 643.899 197.872C641.307 192.4 640.011 186.016 640.011 178.72C640.011 171.52 641.307 165.184 643.899 159.712C646.491 154.24 650.139 150.016 654.843 147.04C659.547 144.064 664.971 142.576 671.115 142.576C677.259 142.576 682.683 144.064 687.387 147.04C692.091 150.016 695.739 154.24 698.331 159.712C700.923 165.184 702.219 171.52 702.219 178.72C702.219 186.016 700.923 192.4 698.331 197.872C695.739 203.344 692.091 207.568 687.387 210.544C682.683 213.52 677.259 215.008 671.115 215.008ZM670.971 209.104C678.939 209.104 685.035 206.512 689.259 201.328C693.579 196.048 695.739 188.512 695.739 178.72C695.739 169.216 693.531 161.824 689.115 156.544C684.795 151.168 678.795 148.48 671.115 148.48C663.435 148.48 657.387 151.168 652.971 156.544C648.651 161.824 646.491 169.216 646.491 178.72C646.491 188.512 648.603 196.048 652.827 201.328C657.147 206.512 663.195 209.104 670.971 209.104ZM750.619 209.104C752.731 209.296 753.787 210.256 753.787 211.984C753.787 214.096 752.395 215.008 749.611 214.72L745.867 214.432C738.667 213.952 733.387 211.792 730.027 207.952C726.667 204.016 724.987 197.968 724.987 189.808V149.488H713.035C712.363 149.488 711.787 149.248 711.307 148.768C710.827 148.288 710.587 147.712 710.587 147.04C710.587 146.272 710.827 145.648 711.307 145.168C711.787 144.592 712.363 144.304 713.035 144.304H724.987V125.152C724.987 124.096 725.275 123.28 725.851 122.704C726.427 122.128 727.147 121.84 728.011 121.84C728.875 121.84 729.595 122.128 730.171 122.704C730.747 123.28 731.035 124.096 731.035 125.152V144.304H750.187C750.859 144.304 751.435 144.592 751.915 145.168C752.395 145.648 752.635 146.272 752.635 147.04C752.635 147.712 752.395 148.288 751.915 148.768C751.531 149.248 750.955 149.488 750.187 149.488H731.035V189.952C731.035 196.48 732.283 201.136 734.779 203.92C737.371 206.704 741.355 208.336 746.731 208.816L750.619 209.104Z" fill="#364971"/>
<path d="M165 167.5C82.5 167.5 82.5 167.5 82.5 250C36.9365 250 0 213.063 0 167.5C0 121.937 36.9365 85 82.5 85C128.063 85 165 121.937 165 167.5Z" fill="#FAAD3C"/>
<path d="M140.455 167.5C140.455 199.507 114.507 225.455 82.5 225.455C50.4926 225.455 24.5455 199.507 24.5455 167.5C82.5 167.5 82.5 167.5 82.5 109.545C114.507 109.545 140.455 135.493 140.455 167.5Z" fill="#334772"/>
<path d="M117 168.5C117 187.002 102.002 202 83.5 202C64.9985 202 50 187.002 50 168.5C50 149.998 64.9985 135 83.5 135C83.5 168.5 83.5 168.5 117 168.5Z" fill="#445A94"/>
</svg>
