<?xml version="1.0" standalone="no"?>
<!DOCTYPE svg PUBLIC "-//W3C//DTD SVG 20010904//EN"
 "http://www.w3.org/TR/2001/REC-SVG-20010904/DTD/svg10.dtd">
<svg version="1.0" xmlns="http://www.w3.org/2000/svg"
 width="700.000000pt" height="700.000000pt" viewBox="0 0 700.000000 700.000000"
 preserveAspectRatio="xMidYMid meet">
<metadata>
Created by potrace 1.11, written by Peter Selinger 2001-2013
</metadata>
<g transform="translate(0.000000,700.000000) scale(0.100000,-0.100000)"
fill="#000000" stroke="none">
<path d="M3310 6994 c-571 -49 -945 -150 -1390 -375 -328 -165 -593 -355 -864
-619 -532 -518 -885 -1193 -1005 -1920 -36 -218 -45 -339 -45 -580 0 -573 118
-1072 375 -1580 175 -348 395 -647 675 -920 271 -264 536 -454 864 -619 508
-257 1007 -375 1580 -375 573 0 1072 118 1580 375 328 165 593 355 864 619
532 518 885 1193 1005 1920 36 218 45 339 45 580 0 573 -118 1072 -375 1580
-175 348 -395 647 -675 920 -566 552 -1259 882 -2049 975 -126 15 -493 27
-585 19z m606 -518 c556 -85 1025 -287 1455 -627 133 -105 373 -345 478 -478
348 -439 558 -937 633 -1496 18 -134 18 -616 0 -750 -75 -559 -285 -1057 -633
-1496 -105 -133 -345 -373 -478 -478 -439 -348 -937 -558 -1496 -633 -134 -18
-616 -18 -750 0 -559 75 -1057 285 -1496 633 -133 105 -373 345 -478 478 -348
439 -558 937 -633 1496 -18 134 -18 616 0 750 63 473 224 903 483 1291 210
314 519 623 833 833 387 258 847 430 1286 480 52 6 109 13 125 15 74 10 575
-3 671 -18z"/>
<path d="M3430 5983 c-46 -19 -96 -68 -123 -118 l-22 -40 -3 -882 -2 -882 -63
-33 c-81 -42 -202 -164 -245 -245 -119 -227 -84 -500 88 -687 96 -104 210
-164 354 -189 l73 -12 472 -505 c260 -278 491 -519 512 -536 76 -62 189 -69
275 -19 112 66 150 203 89 319 -28 52 -101 132 -733 803 l-144 152 30 43 c71
104 112 232 112 348 0 85 -30 204 -72 283 -41 76 -139 182 -207 222 l-50 30
-3 895 -3 895 -22 41 c-28 52 -95 111 -142 124 -51 14 -130 11 -171 -7z"/>
</g>
</svg>
